<svg width="89" height="89" viewBox="0 0 89 89" fill="none" xmlns="http://www.w3.org/2000/svg">
<path d="M35.4324 54.3111L22.9039 85.4661L31.5232 88.9322L44.0517 57.7772L35.4324 54.3111Z" fill="black"/>
<path d="M53.5663 54.3789L44.947 57.8459L57.4789 89.0009L66.0981 85.5339L53.5663 54.3789Z" fill="black"/>
<path d="M57.5124 -5.30045e-06L44.9839 31.155L53.6031 34.6211L66.1316 3.46609L57.5124 -5.30045e-06Z" fill="black"/>
<path d="M31.4747 0.000326042L22.8555 3.46735L35.3873 34.6223L44.0065 31.1553L31.4747 0.000326042Z" fill="black"/>
<path d="M3.51988 22.8532L0.0528564 31.4725L31.2078 44.0043L34.6749 35.3851L3.51988 22.8532Z" fill="black"/>
<path d="M31.155 44.9105L0 57.439L3.46609 66.0582L34.6211 53.5297L31.155 44.9105Z" fill="black"/>
<path d="M57.829 44.9315L54.3629 53.5507L85.5179 66.0792L88.984 57.4599L57.829 44.9315Z" fill="black"/>
<path d="M85.534 22.8229L54.379 35.3514L57.8451 43.9706L89.0001 31.4421L85.534 22.8229Z" fill="black"/>
</svg>
